<svg width="552" height="150" viewBox="0 0 552 150" fill="none" xmlns="http://www.w3.org/2000/svg">
<mask id="path-1-inside-1_11_1753" fill="white">
<path d="M20.8974 0H21.9052C43.5351 0.670898 59.3467 15.1084 66.3633 34.7432C66.3783 34.7838 66.4065 34.8182 66.4432 34.8406C66.48 34.863 66.5231 34.872 66.5654 34.8662C67.3857 34.751 68.2041 34.6299 69.0205 34.5029C73.8193 33.7588 78.583 33.8809 83.3115 34.8691C83.3758 34.8824 83.4426 34.8721 83.4997 34.8404C83.5567 34.8086 83.6002 34.7575 83.622 34.6963C85.8213 28.6572 88.8759 23.1172 92.7861 18.0762C93.8271 16.7324 94.9912 16.4746 96.2783 17.3027C97.2392 18.334 97.3193 19.373 96.5185 20.4199C92.7529 25.3457 89.8613 30.5166 87.8437 35.9326C87.8047 36.0361 87.8379 36.1064 87.9433 36.1436C90.8789 37.1514 93.7685 38.5439 96.6123 40.3213C98.417 41.4893 100.235 42.9004 102.067 44.5547C102.086 44.5709 102.108 44.5824 102.132 44.5882C102.156 44.594 102.181 44.5938 102.205 44.5878C102.229 44.5817 102.251 44.5699 102.269 44.5535C102.288 44.537 102.302 44.5163 102.311 44.4932C107.81 29.3789 116.077 16.2656 127.157 4.64648C127.263 4.53711 127.239 4.48535 127.087 4.49121C123.909 4.62793 120.805 5.12695 117.773 5.98828C112.23 7.53516 107.575 10.1279 103.137 13.6201C101.971 14.5371 100.901 14.6455 99.8027 13.6406C98.7773 12.1523 99.3193 11.0801 100.632 10.0225C107.72 4.29785 115.852 1.03809 125.027 0.243164C126.031 0.157227 127.038 0.0761719 128.048 0H129.144C132.621 0.624023 133.784 4.24512 131.244 6.76465C119.619 18.29 111.003 32.6221 105.683 48.0732C105.649 48.1729 105.664 48.2637 105.727 48.3457L107.865 51.1553C107.873 51.1654 107.883 51.1736 107.895 51.1791C107.906 51.1846 107.919 51.1873 107.932 51.187C107.945 51.1867 107.957 51.1835 107.969 51.1774C107.98 51.1714 107.99 51.1628 107.997 51.1523C111.644 46.1152 116.504 43.1543 122.578 42.2695C124.339 42.0117 126.401 42.123 128.3 42.1143C130.816 42.1025 132.77 42.7646 133.79 45.0908C134.093 45.7783 134.258 46.8457 134.285 48.293C134.355 51.918 134.338 54.2959 134.232 55.4268C133.283 65.792 125.563 73.916 115.175 75.0879C115.075 75.0977 115.021 75.1533 115.014 75.2549C114.869 77.5713 114.537 80.1465 114.018 82.9805C112.932 88.9102 111.829 94.8369 110.71 100.761C109.172 108.894 103.061 114.727 102.633 123.199C102.514 125.541 102.45 126.747 102.442 126.817C100.711 140.821 89.625 149.584 75.8467 150H73.8867C60.6797 149.32 49.8926 141.428 47.6982 127.951C47.3789 125.977 47.4053 123.387 47.1562 121.107C46.9804 119.484 47.1035 118.441 48.7265 117.896C50.2129 117.715 51.1035 118.316 51.3984 119.701C51.8467 121.822 51.709 124.854 51.9756 126.776C53.458 137.546 61.9775 144.762 72.6767 145.427C72.7607 145.433 72.8027 145.394 72.8027 145.31V134.238C72.8026 134.136 72.765 134.039 72.6972 133.966C71.6748 132.864 69.1553 130.617 68.7158 129.287C67.998 127.122 70.7988 125.505 72.3193 127.122C73.1767 128.032 74.0342 128.956 74.8916 129.894C74.9599 129.97 75.0293 129.97 75.0996 129.894C76.0049 128.912 77.5576 126.832 78.7851 126.51C80.291 126.114 81.8496 127.811 81.3252 129.261C81.1924 129.63 80.8047 130.166 80.1621 130.869C79.2109 131.914 78.25 132.954 77.2793 133.989C77.2246 134.048 77.1972 134.117 77.1972 134.197V145.31C77.1972 145.405 77.2451 145.452 77.3408 145.45C77.997 145.442 78.4687 145.365 78.7558 145.219C88.8779 144.152 96.3457 137.171 97.9424 127.066C98.04 126.436 98.1552 124.852 98.2881 122.314C98.5107 118.087 99.9258 114.636 102.038 110.484C103.638 107.347 105.583 104.033 106.263 100.617C107.026 96.7656 108.169 90.6221 109.69 82.1865C110.153 79.6201 110.43 77.6885 110.52 76.3916C111.782 58.0225 98.6719 41.6543 80.4785 38.874C67.9775 36.7852 55.0195 41.8711 47.1855 51.8232C40.375 60.4756 38.0449 70.4746 40.1953 81.8203C41.3105 87.707 42.417 93.5957 43.5146 99.4863C44.1679 102.999 45.3427 105.442 47.0859 108.771C47.8681 110.262 47.9765 111.478 46.4824 112.441C44.8213 113.054 43.998 112.26 43.2187 110.818C41.3701 107.394 39.9902 104.405 39.2754 100.658C38.0429 94.1875 36.8388 87.71 35.6631 81.2256C35.3056 79.2568 35.0869 77.2734 35.0068 75.2754C35.0051 75.2329 34.9885 75.1924 34.96 75.1613C34.9316 75.1301 34.8931 75.1103 34.8515 75.1055C31.9785 74.7754 29.2851 73.9287 26.7715 72.5654C25.2334 71.7305 24.4306 70.7256 25.2949 69.0059C26.2383 67.8867 27.3398 67.8838 28.6113 68.5898C30.5703 69.6758 32.6836 70.376 34.9511 70.6904C35.0683 70.708 35.1328 70.6572 35.1445 70.5381C35.6152 65.2979 37.0498 60.3408 39.4482 55.667C39.4912 55.583 39.4902 55.499 39.4453 55.415C36.7383 50.542 32.7051 47.6406 27.3457 46.7109C25.3623 46.3682 22.9189 46.5205 20.7597 46.5059C20.6793 46.5055 20.5996 46.5208 20.5252 46.5511C20.4508 46.5814 20.383 46.6259 20.3259 46.6823C20.2688 46.7386 20.2234 46.8055 20.1922 46.8793C20.1611 46.9531 20.1449 47.0323 20.1445 47.1123C20.1299 50.4434 19.8428 54.4629 20.5224 57.4512C20.8564 58.9219 21.3906 60.4004 22.125 61.8867C22.7051 63.0625 22.457 64.0596 21.3808 64.8779C19.9941 65.5029 18.9551 65.2061 18.2636 63.9873C15.4043 58.9512 15.7383 53.7422 15.7441 48.0059C15.747 44.1445 17.6162 42.126 21.5302 42.1172C23.4726 42.1143 25.5908 42.0146 27.3896 42.2666C33.4756 43.1201 38.3369 46.0752 41.9736 51.1318C41.9848 51.1469 41.9993 51.1592 42.0159 51.1677C42.0325 51.1763 42.0508 51.1809 42.0693 51.1812C42.0878 51.1815 42.106 51.1774 42.1224 51.1694C42.1389 51.1613 42.1531 51.1495 42.164 51.1348L44.2236 48.3955C44.2587 48.3486 44.2819 48.2939 44.2911 48.2362C44.3002 48.1785 44.2952 48.1195 44.2763 48.0645C38.9306 32.3203 30.4336 18.5479 18.7851 6.74707C18.1113 6.06348 17.6924 5.46289 17.5283 4.94531C16.7754 2.57519 18.4834 0.325195 20.8974 0ZM25.6582 7.56152C35.3437 18.4541 42.6933 30.7764 47.707 44.5283C47.748 44.6377 47.8115 44.6533 47.8974 44.5752C50.3662 42.3564 52.9785 40.4756 55.7344 38.9326C57.834 37.8213 59.9306 36.8936 62.0244 36.1494C62.1162 36.1162 62.1455 36.0537 62.1123 35.9619C55.9013 18.6797 41.9941 5.43457 22.9277 4.5C22.7969 4.49414 22.7763 4.53809 22.8662 4.63184L25.6582 7.56152ZM122.394 46.752C117.445 47.6426 112.895 50.8213 110.575 55.418C110.528 55.5137 110.529 55.6084 110.578 55.7021C112.953 60.3662 114.376 65.3096 114.847 70.5322C114.849 70.5545 114.855 70.5761 114.866 70.5958C114.877 70.6155 114.892 70.6328 114.91 70.6467C114.927 70.6607 114.948 70.671 114.97 70.6769C114.992 70.6829 115.014 70.6845 115.037 70.6816C122.288 69.6943 128.048 64.418 129.521 57.2139C130.113 54.3164 129.853 50.4111 129.861 47.127C129.861 46.9651 129.798 46.8098 129.684 46.695C129.57 46.5803 129.416 46.5154 129.255 46.5146C126.987 46.4941 124.447 46.3857 122.394 46.752Z"/>
</mask>
<path d="M20.8974 0H21.9052C43.5351 0.670898 59.3467 15.1084 66.3633 34.7432C66.3783 34.7838 66.4065 34.8182 66.4432 34.8406C66.48 34.863 66.5231 34.872 66.5654 34.8662C67.3857 34.751 68.2041 34.6299 69.0205 34.5029C73.8193 33.7588 78.583 33.8809 83.3115 34.8691C83.3758 34.8824 83.4426 34.8721 83.4997 34.8404C83.5567 34.8086 83.6002 34.7575 83.622 34.6963C85.8213 28.6572 88.8759 23.1172 92.7861 18.0762C93.8271 16.7324 94.9912 16.4746 96.2783 17.3027C97.2392 18.334 97.3193 19.373 96.5185 20.4199C92.7529 25.3457 89.8613 30.5166 87.8437 35.9326C87.8047 36.0361 87.8379 36.1064 87.9433 36.1436C90.8789 37.1514 93.7685 38.5439 96.6123 40.3213C98.417 41.4893 100.235 42.9004 102.067 44.5547C102.086 44.5709 102.108 44.5824 102.132 44.5882C102.156 44.594 102.181 44.5938 102.205 44.5878C102.229 44.5817 102.251 44.5699 102.269 44.5535C102.288 44.537 102.302 44.5163 102.311 44.4932C107.81 29.3789 116.077 16.2656 127.157 4.64648C127.263 4.53711 127.239 4.48535 127.087 4.49121C123.909 4.62793 120.805 5.12695 117.773 5.98828C112.23 7.53516 107.575 10.1279 103.137 13.6201C101.971 14.5371 100.901 14.6455 99.8027 13.6406C98.7773 12.1523 99.3193 11.0801 100.632 10.0225C107.72 4.29785 115.852 1.03809 125.027 0.243164C126.031 0.157227 127.038 0.0761719 128.048 0H129.144C132.621 0.624023 133.784 4.24512 131.244 6.76465C119.619 18.29 111.003 32.6221 105.683 48.0732C105.649 48.1729 105.664 48.2637 105.727 48.3457L107.865 51.1553C107.873 51.1654 107.883 51.1736 107.895 51.1791C107.906 51.1846 107.919 51.1873 107.932 51.187C107.945 51.1867 107.957 51.1835 107.969 51.1774C107.98 51.1714 107.99 51.1628 107.997 51.1523C111.644 46.1152 116.504 43.1543 122.578 42.2695C124.339 42.0117 126.401 42.123 128.3 42.1143C130.816 42.1025 132.77 42.7646 133.79 45.0908C134.093 45.7783 134.258 46.8457 134.285 48.293C134.355 51.918 134.338 54.2959 134.232 55.4268C133.283 65.792 125.563 73.916 115.175 75.0879C115.075 75.0977 115.021 75.1533 115.014 75.2549C114.869 77.5713 114.537 80.1465 114.018 82.9805C112.932 88.9102 111.829 94.8369 110.71 100.761C109.172 108.894 103.061 114.727 102.633 123.199C102.514 125.541 102.45 126.747 102.442 126.817C100.711 140.821 89.625 149.584 75.8467 150H73.8867C60.6797 149.32 49.8926 141.428 47.6982 127.951C47.3789 125.977 47.4053 123.387 47.1562 121.107C46.9804 119.484 47.1035 118.441 48.7265 117.896C50.2129 117.715 51.1035 118.316 51.3984 119.701C51.8467 121.822 51.709 124.854 51.9756 126.776C53.458 137.546 61.9775 144.762 72.6767 145.427C72.7607 145.433 72.8027 145.394 72.8027 145.31V134.238C72.8026 134.136 72.765 134.039 72.6972 133.966C71.6748 132.864 69.1553 130.617 68.7158 129.287C67.998 127.122 70.7988 125.505 72.3193 127.122C73.1767 128.032 74.0342 128.956 74.8916 129.894C74.9599 129.97 75.0293 129.97 75.0996 129.894C76.0049 128.912 77.5576 126.832 78.7851 126.51C80.291 126.114 81.8496 127.811 81.3252 129.261C81.1924 129.63 80.8047 130.166 80.1621 130.869C79.2109 131.914 78.25 132.954 77.2793 133.989C77.2246 134.048 77.1972 134.117 77.1972 134.197V145.31C77.1972 145.405 77.2451 145.452 77.3408 145.45C77.997 145.442 78.4687 145.365 78.7558 145.219C88.8779 144.152 96.3457 137.171 97.9424 127.066C98.04 126.436 98.1552 124.852 98.2881 122.314C98.5107 118.087 99.9258 114.636 102.038 110.484C103.638 107.347 105.583 104.033 106.263 100.617C107.026 96.7656 108.169 90.6221 109.69 82.1865C110.153 79.6201 110.43 77.6885 110.52 76.3916C111.782 58.0225 98.6719 41.6543 80.4785 38.874C67.9775 36.7852 55.0195 41.8711 47.1855 51.8232C40.375 60.4756 38.0449 70.4746 40.1953 81.8203C41.3105 87.707 42.417 93.5957 43.5146 99.4863C44.1679 102.999 45.3427 105.442 47.0859 108.771C47.8681 110.262 47.9765 111.478 46.4824 112.441C44.8213 113.054 43.998 112.26 43.2187 110.818C41.3701 107.394 39.9902 104.405 39.2754 100.658C38.0429 94.1875 36.8388 87.71 35.6631 81.2256C35.3056 79.2568 35.0869 77.2734 35.0068 75.2754C35.0051 75.2329 34.9885 75.1924 34.96 75.1613C34.9316 75.1301 34.8931 75.1103 34.8515 75.1055C31.9785 74.7754 29.2851 73.9287 26.7715 72.5654C25.2334 71.7305 24.4306 70.7256 25.2949 69.0059C26.2383 67.8867 27.3398 67.8838 28.6113 68.5898C30.5703 69.6758 32.6836 70.376 34.9511 70.6904C35.0683 70.708 35.1328 70.6572 35.1445 70.5381C35.6152 65.2979 37.0498 60.3408 39.4482 55.667C39.4912 55.583 39.4902 55.499 39.4453 55.415C36.7383 50.542 32.7051 47.6406 27.3457 46.7109C25.3623 46.3682 22.9189 46.5205 20.7597 46.5059C20.6793 46.5055 20.5996 46.5208 20.5252 46.5511C20.4508 46.5814 20.383 46.6259 20.3259 46.6823C20.2688 46.7386 20.2234 46.8055 20.1922 46.8793C20.1611 46.9531 20.1449 47.0323 20.1445 47.1123C20.1299 50.4434 19.8428 54.4629 20.5224 57.4512C20.8564 58.9219 21.3906 60.4004 22.125 61.8867C22.7051 63.0625 22.457 64.0596 21.3808 64.8779C19.9941 65.5029 18.9551 65.2061 18.2636 63.9873C15.4043 58.9512 15.7383 53.7422 15.7441 48.0059C15.747 44.1445 17.6162 42.126 21.5302 42.1172C23.4726 42.1143 25.5908 42.0146 27.3896 42.2666C33.4756 43.1201 38.3369 46.0752 41.9736 51.1318C41.9848 51.1469 41.9993 51.1592 42.0159 51.1677C42.0325 51.1763 42.0508 51.1809 42.0693 51.1812C42.0878 51.1815 42.106 51.1774 42.1224 51.1694C42.1389 51.1613 42.1531 51.1495 42.164 51.1348L44.2236 48.3955C44.2587 48.3486 44.2819 48.2939 44.2911 48.2362C44.3002 48.1785 44.2952 48.1195 44.2763 48.0645C38.9306 32.3203 30.4336 18.5479 18.7851 6.74707C18.1113 6.06348 17.6924 5.46289 17.5283 4.94531C16.7754 2.57519 18.4834 0.325195 20.8974 0ZM25.6582 7.56152C35.3437 18.4541 42.6933 30.7764 47.707 44.5283C47.748 44.6377 47.8115 44.6533 47.8974 44.5752C50.3662 42.3564 52.9785 40.4756 55.7344 38.9326C57.834 37.8213 59.9306 36.8936 62.0244 36.1494C62.1162 36.1162 62.1455 36.0537 62.1123 35.9619C55.9013 18.6797 41.9941 5.43457 22.9277 4.5C22.7969 4.49414 22.7763 4.53809 22.8662 4.63184L25.6582 7.56152ZM122.394 46.752C117.445 47.6426 112.895 50.8213 110.575 55.418C110.528 55.5137 110.529 55.6084 110.578 55.7021C112.953 60.3662 114.376 65.3096 114.847 70.5322C114.849 70.5545 114.855 70.5761 114.866 70.5958C114.877 70.6155 114.892 70.6328 114.91 70.6467C114.927 70.6607 114.948 70.671 114.97 70.6769C114.992 70.6829 115.014 70.6845 115.037 70.6816C122.288 69.6943 128.048 64.418 129.521 57.2139C130.113 54.3164 129.853 50.4111 129.861 47.127C129.861 46.9651 129.798 46.8098 129.684 46.695C129.57 46.5803 129.416 46.5154 129.255 46.5146C126.987 46.4941 124.447 46.3857 122.394 46.752Z" fill="black" stroke="black" stroke-width="6" mask="url(#path-1-inside-1_11_1753)"/>
<path d="M51.2519 95.3057C48.4248 92.8769 49.0341 89.4346 49.0019 86.1299C48.9804 84.0459 49.123 82.5537 49.4297 81.6533C51.4131 75.8262 59.7773 75.7441 61.9043 81.5156C62.5927 83.3818 62.332 86.2793 62.332 88.5059C62.334 90.4902 62.1972 91.8701 61.9218 92.6455C60.3281 97.1396 54.8642 98.4111 51.2519 95.3057ZM57.9257 83.7901C57.9262 83.5065 57.8709 83.2256 57.7628 82.9635C57.6547 82.7013 57.4961 82.463 57.296 82.2622C57.0958 82.0613 56.8581 81.9019 56.5963 81.7929C56.3345 81.684 56.0538 81.6276 55.7703 81.6271L55.5828 81.6268C55.0101 81.6258 54.4606 81.8523 54.0549 82.2566C53.6493 82.6608 53.4209 83.2096 53.4199 83.7822L53.4082 90.456C53.4077 90.7396 53.4631 91.0204 53.5711 91.2826C53.6792 91.5447 53.8378 91.7831 54.038 91.9839C54.2381 92.1848 54.4759 92.3442 54.7376 92.4532C54.9994 92.5621 55.2801 92.6185 55.5636 92.619L55.7511 92.6193C56.3238 92.6203 56.8734 92.3938 57.279 91.9895C57.6846 91.5853 57.9131 91.0365 57.9141 90.4639L57.9257 83.7901Z" fill="black"/>
<path d="M97.6582 96.1172C94.2803 98.1709 89.4404 96.6211 88.0606 92.6836C87.8145 91.9766 87.6865 90.8506 87.6768 89.3057C87.6651 86.9004 87.3604 83.7041 88.0723 81.6153C89.4727 77.5108 94.4268 75.9551 98.124 78.3926C100.644 80.0537 100.98 82.5264 101.001 85.6641C101.03 89.9737 101.622 93.709 97.6582 96.1172ZM96.5947 83.7882C96.5967 83.2155 96.3711 82.6655 95.9676 82.2592C95.5641 81.8529 95.0157 81.6235 94.443 81.6215L94.2555 81.6208C93.6829 81.6188 93.1329 81.8444 92.7266 82.2479C92.3202 82.6514 92.0908 83.1998 92.0888 83.7724L92.0655 90.4521C92.0635 91.0247 92.2891 91.5747 92.6926 91.9811C93.0961 92.3874 93.6445 92.6168 94.2172 92.6188L94.4047 92.6195C94.9773 92.6215 95.5273 92.3959 95.9336 91.9924C96.34 91.5889 96.5694 91.0405 96.5714 90.4678L96.5947 83.7882Z" fill="black"/>
<path d="M55.7703 81.6271L55.5828 81.6268C54.3903 81.6247 53.422 82.5897 53.4199 83.7822L53.4082 90.456C53.4061 91.6485 54.3712 92.6169 55.5636 92.619L55.7511 92.6193C56.9436 92.6214 57.912 91.6564 57.9141 90.4639L57.9257 83.7901C57.9278 82.5976 56.9628 81.6292 55.7703 81.6271Z" fill="#FF0000"/>
<path d="M171.05 69.4C168.35 69.4 165.867 68.9667 163.6 68.1C161.333 67.2 159.367 65.95 157.7 64.35C156.033 62.7167 154.733 60.8167 153.8 58.65C152.867 56.4833 152.4 54.1 152.4 51.5C152.4 48.9 152.867 46.5167 153.8 44.35C154.733 42.1833 156.033 40.3 157.7 38.7C159.4 37.0667 161.383 35.8167 163.65 34.95C165.917 34.05 168.417 33.6 171.15 33.6C173.917 33.6 176.45 34.05 178.75 34.95C181.05 35.85 183 37.2 184.6 39L181.5 42.1C180.067 40.7 178.5 39.6833 176.8 39.05C175.133 38.3833 173.317 38.05 171.35 38.05C169.35 38.05 167.483 38.3833 165.75 39.05C164.05 39.7167 162.567 40.65 161.3 41.85C160.067 43.05 159.1 44.4833 158.4 46.15C157.733 47.7833 157.4 49.5667 157.4 51.5C157.4 53.4 157.733 55.1833 158.4 56.85C159.1 58.4833 160.067 59.9167 161.3 61.15C162.567 62.35 164.05 63.2833 165.75 63.95C167.45 64.6167 169.3 64.95 171.3 64.95C173.167 64.95 174.95 64.6667 176.65 64.1C178.383 63.5 179.983 62.5167 181.45 61.15L184.3 64.95C182.567 66.4167 180.533 67.5333 178.2 68.3C175.9 69.0333 173.517 69.4 171.05 69.4ZM179.5 64.3V51.3H184.3V64.95L179.5 64.3ZM204.523 69.3C201.856 69.3 199.49 68.7167 197.423 67.55C195.356 66.3833 193.723 64.7833 192.523 62.75C191.323 60.6833 190.723 58.35 190.723 55.75C190.723 53.1167 191.323 50.7833 192.523 48.75C193.723 46.7167 195.356 45.1333 197.423 44C199.49 42.8333 201.856 42.25 204.523 42.25C207.156 42.25 209.506 42.8333 211.573 44C213.673 45.1333 215.306 46.7167 216.473 48.75C217.673 50.75 218.273 53.0833 218.273 55.75C218.273 58.3833 217.673 60.7167 216.473 62.75C215.306 64.7833 213.673 66.3833 211.573 67.55C209.506 68.7167 207.156 69.3 204.523 69.3ZM204.523 65.1C206.223 65.1 207.74 64.7167 209.073 63.95C210.44 63.1833 211.506 62.1 212.273 60.7C213.04 59.2667 213.423 57.6167 213.423 55.75C213.423 53.85 213.04 52.2167 212.273 50.85C211.506 49.45 210.44 48.3667 209.073 47.6C207.74 46.8333 206.223 46.45 204.523 46.45C202.823 46.45 201.306 46.8333 199.973 47.6C198.64 48.3667 197.573 49.45 196.773 50.85C195.973 52.2167 195.573 53.85 195.573 55.75C195.573 57.6167 195.973 59.2667 196.773 60.7C197.573 62.1 198.64 63.1833 199.973 63.95C201.306 64.7167 202.823 65.1 204.523 65.1ZM241.117 69V63.4L240.867 62.35V52.8C240.867 50.7667 240.267 49.2 239.067 48.1C237.901 46.9667 236.134 46.4 233.767 46.4C232.201 46.4 230.667 46.6667 229.167 47.2C227.667 47.7 226.401 48.3833 225.367 49.25L223.367 45.65C224.734 44.55 226.367 43.7167 228.267 43.15C230.201 42.55 232.217 42.25 234.317 42.25C237.951 42.25 240.751 43.1333 242.717 44.9C244.684 46.6667 245.667 49.3667 245.667 53V69H241.117ZM232.417 69.3C230.451 69.3 228.717 68.9667 227.217 68.3C225.751 67.6333 224.617 66.7167 223.817 65.55C223.017 64.35 222.617 63 222.617 61.5C222.617 60.0667 222.951 58.7667 223.617 57.6C224.317 56.4333 225.434 55.5 226.967 54.8C228.534 54.1 230.634 53.75 233.267 53.75H241.667V57.2H233.467C231.067 57.2 229.451 57.6 228.617 58.4C227.784 59.2 227.367 60.1667 227.367 61.3C227.367 62.6 227.884 63.65 228.917 64.45C229.951 65.2167 231.384 65.6 233.217 65.6C235.017 65.6 236.584 65.2 237.917 64.4C239.284 63.6 240.267 62.4333 240.867 60.9L241.817 64.2C241.184 65.7667 240.067 67.0167 238.467 67.95C236.867 68.85 234.851 69.3 232.417 69.3ZM263.65 69.3C260.983 69.3 258.917 68.5833 257.45 67.15C255.983 65.7167 255.25 63.6667 255.25 61V36.7H260.05V60.8C260.05 62.2333 260.4 63.3333 261.1 64.1C261.833 64.8667 262.867 65.25 264.2 65.25C265.7 65.25 266.95 64.8333 267.95 64L269.45 67.45C268.717 68.0833 267.833 68.55 266.8 68.85C265.8 69.15 264.75 69.3 263.65 69.3ZM250.75 46.45V42.5H267.65V46.45H250.75ZM282.853 69.3C280.653 69.3 278.553 69 276.553 68.4C274.586 67.8 273.036 67.0667 271.903 66.2L273.903 62.4C275.036 63.1667 276.436 63.8167 278.103 64.35C279.77 64.8833 281.47 65.15 283.203 65.15C285.436 65.15 287.036 64.8333 288.003 64.2C289.003 63.5667 289.503 62.6833 289.503 61.55C289.503 60.7167 289.203 60.0667 288.603 59.6C288.003 59.1333 287.203 58.7833 286.203 58.55C285.236 58.3167 284.153 58.1167 282.953 57.95C281.753 57.75 280.553 57.5167 279.353 57.25C278.153 56.95 277.053 56.55 276.053 56.05C275.053 55.5167 274.253 54.8 273.653 53.9C273.053 52.9667 272.753 51.7333 272.753 50.2C272.753 48.6 273.203 47.2 274.103 46C275.003 44.8 276.27 43.8833 277.903 43.25C279.57 42.5833 281.536 42.25 283.803 42.25C285.536 42.25 287.286 42.4667 289.053 42.9C290.853 43.3 292.32 43.8833 293.453 44.65L291.403 48.45C290.203 47.65 288.953 47.1 287.653 46.8C286.353 46.5 285.053 46.35 283.753 46.35C281.653 46.35 280.086 46.7 279.053 47.4C278.02 48.0667 277.503 48.9333 277.503 50C277.503 50.9 277.803 51.6 278.403 52.1C279.036 52.5667 279.836 52.9333 280.803 53.2C281.803 53.4667 282.903 53.7 284.103 53.9C285.303 54.0667 286.503 54.3 287.703 54.6C288.903 54.8667 289.986 55.25 290.953 55.75C291.953 56.25 292.753 56.95 293.353 57.85C293.986 58.75 294.303 59.95 294.303 61.45C294.303 63.05 293.836 64.4333 292.903 65.6C291.97 66.7667 290.653 67.6833 288.953 68.35C287.253 68.9833 285.22 69.3 282.853 69.3ZM311.852 69.3C309.152 69.3 306.735 68.7167 304.602 67.55C302.502 66.3833 300.852 64.7833 299.652 62.75C298.452 60.7167 297.852 58.3833 297.852 55.75C297.852 53.1167 298.452 50.7833 299.652 48.75C300.852 46.7167 302.502 45.1333 304.602 44C306.735 42.8333 309.152 42.25 311.852 42.25C314.252 42.25 316.385 42.7333 318.252 43.7C320.152 44.6333 321.619 46.0333 322.652 47.9L319.002 50.25C318.135 48.95 317.069 48 315.802 47.4C314.569 46.7667 313.235 46.45 311.802 46.45C310.069 46.45 308.519 46.8333 307.152 47.6C305.785 48.3667 304.702 49.45 303.902 50.85C303.102 52.2167 302.702 53.85 302.702 55.75C302.702 57.65 303.102 59.3 303.902 60.7C304.702 62.1 305.785 63.1833 307.152 63.95C308.519 64.7167 310.069 65.1 311.802 65.1C313.235 65.1 314.569 64.8 315.802 64.2C317.069 63.5667 318.135 62.6 319.002 61.3L322.652 63.6C321.619 65.4333 320.152 66.85 318.252 67.85C316.385 68.8167 314.252 69.3 311.852 69.3ZM339.826 69.3C337.159 69.3 334.792 68.7167 332.726 67.55C330.659 66.3833 329.026 64.7833 327.826 62.75C326.626 60.6833 326.026 58.35 326.026 55.75C326.026 53.1167 326.626 50.7833 327.826 48.75C329.026 46.7167 330.659 45.1333 332.726 44C334.792 42.8333 337.159 42.25 339.826 42.25C342.459 42.25 344.809 42.8333 346.876 44C348.976 45.1333 350.609 46.7167 351.776 48.75C352.976 50.75 353.576 53.0833 353.576 55.75C353.576 58.3833 352.976 60.7167 351.776 62.75C350.609 64.7833 348.976 66.3833 346.876 67.55C344.809 68.7167 342.459 69.3 339.826 69.3ZM339.826 65.1C341.526 65.1 343.042 64.7167 344.376 63.95C345.742 63.1833 346.809 62.1 347.576 60.7C348.342 59.2667 348.726 57.6167 348.726 55.75C348.726 53.85 348.342 52.2167 347.576 50.85C346.809 49.45 345.742 48.3667 344.376 47.6C343.042 46.8333 341.526 46.45 339.826 46.45C338.126 46.45 336.609 46.8333 335.276 47.6C333.942 48.3667 332.876 49.45 332.076 50.85C331.276 52.2167 330.876 53.85 330.876 55.75C330.876 57.6167 331.276 59.2667 332.076 60.7C332.876 62.1 333.942 63.1833 335.276 63.95C336.609 64.7167 338.126 65.1 339.826 65.1ZM371.164 69.3C368.597 69.3 366.297 68.7333 364.264 67.6C362.264 66.4667 360.681 64.8833 359.514 62.85C358.347 60.8167 357.764 58.45 357.764 55.75C357.764 53.05 358.347 50.7 359.514 48.7C360.681 46.6667 362.264 45.0833 364.264 43.95C366.297 42.8167 368.597 42.25 371.164 42.25C373.397 42.25 375.414 42.75 377.214 43.75C379.014 44.75 380.447 46.25 381.514 48.25C382.614 50.25 383.164 52.75 383.164 55.75C383.164 58.75 382.631 61.25 381.564 63.25C380.531 65.25 379.114 66.7667 377.314 67.8C375.514 68.8 373.464 69.3 371.164 69.3ZM371.564 65.1C373.231 65.1 374.731 64.7167 376.064 63.95C377.431 63.1833 378.497 62.1 379.264 60.7C380.064 59.2667 380.464 57.6167 380.464 55.75C380.464 53.85 380.064 52.2167 379.264 50.85C378.497 49.45 377.431 48.3667 376.064 47.6C374.731 46.8333 373.231 46.45 371.564 46.45C369.864 46.45 368.347 46.8333 367.014 47.6C365.681 48.3667 364.614 49.45 363.814 50.85C363.014 52.2167 362.614 53.85 362.614 55.75C362.614 57.6167 363.014 59.2667 363.814 60.7C364.614 62.1 365.681 63.1833 367.014 63.95C368.347 64.7167 369.864 65.1 371.564 65.1ZM380.614 69V61.85L380.914 55.7L380.414 49.55V31.9H385.214V69H380.614ZM406.096 69.3C403.263 69.3 400.763 68.7167 398.596 67.55C396.463 66.3833 394.796 64.7833 393.596 62.75C392.429 60.7167 391.846 58.3833 391.846 55.75C391.846 53.1167 392.413 50.7833 393.546 48.75C394.713 46.7167 396.296 45.1333 398.296 44C400.329 42.8333 402.613 42.25 405.146 42.25C407.713 42.25 409.979 42.8167 411.946 43.95C413.913 45.0833 415.446 46.6833 416.546 48.75C417.679 50.7833 418.246 53.1667 418.246 55.9C418.246 56.1 418.229 56.3333 418.196 56.6C418.196 56.8667 418.179 57.1167 418.146 57.35H395.596V53.9H415.646L413.696 55.1C413.729 53.4 413.379 51.8833 412.646 50.55C411.913 49.2167 410.896 48.1833 409.596 47.45C408.329 46.6833 406.846 46.3 405.146 46.3C403.479 46.3 401.996 46.6833 400.696 47.45C399.396 48.1833 398.379 49.2333 397.646 50.6C396.913 51.9333 396.546 53.4667 396.546 55.2V56C396.546 57.7667 396.946 59.35 397.746 60.75C398.579 62.1167 399.729 63.1833 401.196 63.95C402.663 64.7167 404.346 65.1 406.246 65.1C407.813 65.1 409.229 64.8333 410.496 64.3C411.796 63.7667 412.929 62.9667 413.896 61.9L416.546 65C415.346 66.4 413.846 67.4667 412.046 68.2C410.279 68.9333 408.296 69.3 406.096 69.3ZM424.911 69V42.5H429.511V49.7L429.061 47.9C429.795 46.0667 431.028 44.6667 432.761 43.7C434.495 42.7333 436.628 42.25 439.161 42.25V46.9C438.961 46.8667 438.761 46.85 438.561 46.85C438.395 46.85 438.228 46.85 438.061 46.85C435.495 46.85 433.461 47.6167 431.961 49.15C430.461 50.6833 429.711 52.9 429.711 55.8V69H424.911ZM452.97 69.3C450.77 69.3 448.67 69 446.67 68.4C444.704 67.8 443.154 67.0667 442.02 66.2L444.02 62.4C445.154 63.1667 446.554 63.8167 448.22 64.35C449.887 64.8833 451.587 65.15 453.32 65.15C455.554 65.15 457.154 64.8333 458.12 64.2C459.12 63.5667 459.62 62.6833 459.62 61.55C459.62 60.7167 459.32 60.0667 458.72 59.6C458.12 59.1333 457.32 58.7833 456.32 58.55C455.354 58.3167 454.27 58.1167 453.07 57.95C451.87 57.75 450.67 57.5167 449.47 57.25C448.27 56.95 447.17 56.55 446.17 56.05C445.17 55.5167 444.37 54.8 443.77 53.9C443.17 52.9667 442.87 51.7333 442.87 50.2C442.87 48.6 443.32 47.2 444.22 46C445.12 44.8 446.387 43.8833 448.02 43.25C449.687 42.5833 451.654 42.25 453.92 42.25C455.654 42.25 457.404 42.4667 459.17 42.9C460.97 43.3 462.437 43.8833 463.57 44.65L461.52 48.45C460.32 47.65 459.07 47.1 457.77 46.8C456.47 46.5 455.17 46.35 453.87 46.35C451.77 46.35 450.204 46.7 449.17 47.4C448.137 48.0667 447.62 48.9333 447.62 50C447.62 50.9 447.92 51.6 448.52 52.1C449.154 52.5667 449.954 52.9333 450.92 53.2C451.92 53.4667 453.02 53.7 454.22 53.9C455.42 54.0667 456.62 54.3 457.82 54.6C459.02 54.8667 460.104 55.25 461.07 55.75C462.07 56.25 462.87 56.95 463.47 57.85C464.104 58.75 464.42 59.95 464.42 61.45C464.42 63.05 463.954 64.4333 463.02 65.6C462.087 66.7667 460.77 67.6833 459.07 68.35C457.37 68.9833 455.337 69.3 452.97 69.3ZM471.569 69.3C470.636 69.3 469.836 68.9833 469.169 68.35C468.502 67.6833 468.169 66.85 468.169 65.85C468.169 64.85 468.502 64.0333 469.169 63.4C469.836 62.7667 470.636 62.45 471.569 62.45C472.469 62.45 473.236 62.7667 473.869 63.4C474.536 64.0333 474.869 64.85 474.869 65.85C474.869 66.85 474.536 67.6833 473.869 68.35C473.236 68.9833 472.469 69.3 471.569 69.3Z" fill="black"/>
<path d="M155.45 130V95H159.55L175.25 121.45H173.05L188.55 95H192.65L192.7 130H187.9L187.85 102.55H189L175.2 125.75H172.9L159 102.55H160.25V130H155.45ZM214.595 130.3C211.761 130.3 209.261 129.717 207.095 128.55C204.961 127.383 203.295 125.783 202.095 123.75C200.928 121.717 200.345 119.383 200.345 116.75C200.345 114.117 200.911 111.783 202.045 109.75C203.211 107.717 204.795 106.133 206.795 105C208.828 103.833 211.111 103.25 213.645 103.25C216.211 103.25 218.478 103.817 220.445 104.95C222.411 106.083 223.945 107.683 225.045 109.75C226.178 111.783 226.745 114.167 226.745 116.9C226.745 117.1 226.728 117.333 226.695 117.6C226.695 117.867 226.678 118.117 226.645 118.35H204.095V114.9H224.145L222.195 116.1C222.228 114.4 221.878 112.883 221.145 111.55C220.411 110.217 219.395 109.183 218.095 108.45C216.828 107.683 215.345 107.3 213.645 107.3C211.978 107.3 210.495 107.683 209.195 108.45C207.895 109.183 206.878 110.233 206.145 111.6C205.411 112.933 205.045 114.467 205.045 116.2V117C205.045 118.767 205.445 120.35 206.245 121.75C207.078 123.117 208.228 124.183 209.695 124.95C211.161 125.717 212.845 126.1 214.745 126.1C216.311 126.1 217.728 125.833 218.995 125.3C220.295 124.767 221.428 123.967 222.395 122.9L225.045 126C223.845 127.4 222.345 128.467 220.545 129.2C218.778 129.933 216.795 130.3 214.595 130.3ZM238.318 130V106.45L239.518 107.7H228.618V103.5H252.818V107.7H241.968L243.118 106.45V130H238.318ZM268.354 130.3C265.521 130.3 263.021 129.717 260.854 128.55C258.721 127.383 257.054 125.783 255.854 123.75C254.688 121.717 254.104 119.383 254.104 116.75C254.104 114.117 254.671 111.783 255.804 109.75C256.971 107.717 258.554 106.133 260.554 105C262.588 103.833 264.871 103.25 267.404 103.25C269.971 103.25 272.238 103.817 274.204 104.95C276.171 106.083 277.704 107.683 278.804 109.75C279.938 111.783 280.504 114.167 280.504 116.9C280.504 117.1 280.488 117.333 280.454 117.6C280.454 117.867 280.438 118.117 280.404 118.35H257.854V114.9H277.904L275.954 116.1C275.988 114.4 275.638 112.883 274.904 111.55C274.171 110.217 273.154 109.183 271.854 108.45C270.588 107.683 269.104 107.3 267.404 107.3C265.738 107.3 264.254 107.683 262.954 108.45C261.654 109.183 260.638 110.233 259.904 111.6C259.171 112.933 258.804 114.467 258.804 116.2V117C258.804 118.767 259.204 120.35 260.004 121.75C260.838 123.117 261.988 124.183 263.454 124.95C264.921 125.717 266.604 126.1 268.504 126.1C270.071 126.1 271.488 125.833 272.754 125.3C274.054 124.767 275.188 123.967 276.154 122.9L278.804 126C277.604 127.4 276.104 128.467 274.304 129.2C272.538 129.933 270.554 130.3 268.354 130.3ZM299.301 130.3C296.634 130.3 294.267 129.717 292.201 128.55C290.134 127.383 288.501 125.783 287.301 123.75C286.101 121.683 285.501 119.35 285.501 116.75C285.501 114.117 286.101 111.783 287.301 109.75C288.501 107.717 290.134 106.133 292.201 105C294.267 103.833 296.634 103.25 299.301 103.25C301.934 103.25 304.284 103.833 306.351 105C308.451 106.133 310.084 107.717 311.251 109.75C312.451 111.75 313.051 114.083 313.051 116.75C313.051 119.383 312.451 121.717 311.251 123.75C310.084 125.783 308.451 127.383 306.351 128.55C304.284 129.717 301.934 130.3 299.301 130.3ZM299.301 126.1C301.001 126.1 302.517 125.717 303.851 124.95C305.217 124.183 306.284 123.1 307.051 121.7C307.817 120.267 308.201 118.617 308.201 116.75C308.201 114.85 307.817 113.217 307.051 111.85C306.284 110.45 305.217 109.367 303.851 108.6C302.517 107.833 301.001 107.45 299.301 107.45C297.601 107.45 296.084 107.833 294.751 108.6C293.417 109.367 292.351 110.45 291.551 111.85C290.751 113.217 290.351 114.85 290.351 116.75C290.351 118.617 290.751 120.267 291.551 121.7C292.351 123.1 293.417 124.183 294.751 124.95C296.084 125.717 297.601 126.1 299.301 126.1ZM331.532 130.3C328.832 130.3 326.415 129.717 324.282 128.55C322.182 127.383 320.532 125.783 319.332 123.75C318.132 121.717 317.532 119.383 317.532 116.75C317.532 114.117 318.132 111.783 319.332 109.75C320.532 107.717 322.182 106.133 324.282 105C326.415 103.833 328.832 103.25 331.532 103.25C333.932 103.25 336.065 103.733 337.932 104.7C339.832 105.633 341.299 107.033 342.332 108.9L338.682 111.25C337.815 109.95 336.749 109 335.482 108.4C334.249 107.767 332.915 107.45 331.482 107.45C329.749 107.45 328.199 107.833 326.832 108.6C325.465 109.367 324.382 110.45 323.582 111.85C322.782 113.217 322.382 114.85 322.382 116.75C322.382 118.65 322.782 120.3 323.582 121.7C324.382 123.1 325.465 124.183 326.832 124.95C328.199 125.717 329.749 126.1 331.482 126.1C332.915 126.1 334.249 125.8 335.482 125.2C336.749 124.567 337.815 123.6 338.682 122.3L342.332 124.6C341.299 126.433 339.832 127.85 337.932 128.85C336.065 129.817 333.932 130.3 331.532 130.3ZM353.455 130V106.45L354.655 107.7H343.755V103.5H367.955V107.7H357.105L358.255 106.45V130H353.455ZM389.113 130V124.4L388.863 123.35V113.8C388.863 111.767 388.263 110.2 387.063 109.1C385.896 107.967 384.13 107.4 381.763 107.4C380.196 107.4 378.663 107.667 377.163 108.2C375.663 108.7 374.396 109.383 373.363 110.25L371.363 106.65C372.73 105.55 374.363 104.717 376.263 104.15C378.196 103.55 380.213 103.25 382.313 103.25C385.946 103.25 388.746 104.133 390.713 105.9C392.68 107.667 393.663 110.367 393.663 114V130H389.113ZM380.413 130.3C378.446 130.3 376.713 129.967 375.213 129.3C373.746 128.633 372.613 127.717 371.813 126.55C371.013 125.35 370.613 124 370.613 122.5C370.613 121.067 370.946 119.767 371.613 118.6C372.313 117.433 373.43 116.5 374.963 115.8C376.53 115.1 378.63 114.75 381.263 114.75H389.663V118.2H381.463C379.063 118.2 377.446 118.6 376.613 119.4C375.78 120.2 375.363 121.167 375.363 122.3C375.363 123.6 375.88 124.65 376.913 125.45C377.946 126.217 379.38 126.6 381.213 126.6C383.013 126.6 384.58 126.2 385.913 125.4C387.28 124.6 388.263 123.433 388.863 121.9L389.813 125.2C389.18 126.767 388.063 128.017 386.463 128.95C384.863 129.85 382.846 130.3 380.413 130.3ZM402.306 130V103.5H407.106V114.75H422.206V103.5H427.006V130H422.206V118.9H407.106V130H402.306ZM436.339 130V103.5H441.139V125.8H455.639V103.5H460.439V130H436.339ZM460.089 136.15V129.75L461.289 130H455.639V125.8H464.639V136.15H460.089ZM470.861 130V103.5H475.661V122.8L491.911 103.5H496.261V130H491.461V110.7L475.261 130H470.861ZM522.528 130V120.7L523.278 121.6H514.828C511.294 121.6 508.528 120.85 506.528 119.35C504.561 117.85 503.578 115.667 503.578 112.8C503.578 109.733 504.628 107.417 506.728 105.85C508.861 104.283 511.694 103.5 515.228 103.5H526.828V130H522.528ZM503.328 130L510.528 119.85H515.478L508.478 130H503.328ZM522.528 119.2V106.35L523.278 107.7H515.378C513.178 107.7 511.478 108.117 510.278 108.95C509.078 109.75 508.478 111.083 508.478 112.95C508.478 116.417 510.711 118.15 515.178 118.15H523.278L522.528 119.2Z" fill="#2A94D0"/>
</svg>
